<?xml version="1.0" encoding="utf-8"?>
<!-- Generator: Adobe Illustrator 19.2.1, SVG Export Plug-In . SVG Version: 6.00 Build 0)  -->
<svg version="1.1" xmlns="http://www.w3.org/2000/svg" xmlns:xlink="http://www.w3.org/1999/xlink" x="0px" y="0px"
	 viewBox="0 0 1417.3 850.4" style="enable-background:new 0 0 1417.3 850.4;" xml:space="preserve">
<style type="text/css">
	.st0{fill:#FBB430;}
	.st1{fill:#18355F;}
	.st2{fill:#ECF8FE;}
</style>
<g id="Layer_2">
</g>
<g id="Layer_1">
	<path class="st0" d="M648.8,433.1c-5.6,8.2-11.4,16.5-17.4,24.8l-0.1,0.1c-73.2,102.1-176.1,216.4-222.4,243
		c-25,14.4-105.9,42.4-156.9-17.3c-51-59.7-93.9-171.9-107.6-200.6c0,0-48.7-110.8-53.5-163.1c-4.8-52.2,28.4-111.5,102.2-119.1
		c73.8-7.5,238.2-15,409.5,66.7c0,0,4.2,2,10.6,5.9h0C640.9,290.6,709.2,344.4,648.8,433.1z"/>
	<path class="st1" d="M283.2,614.1c0,0-112.8-43.9-153.1-77.5s-58.8-99-11.9-156.5S276,201.1,454.9,137.8c0,0,125.1-45.5,149.6,84.3
		c24.2,128,34.9,303.2,19.8,359.1c-7.5,27.8-44.9,104.9-123.2,98.7S313.2,624.8,283.2,614.1z"/>
	<g>
		<path class="st2" d="M316.3,357.4l-1.7,8.3h-1.4c-10.2-13.8-31.5-19.1-49.2-19.1c-18.5,0-40.9,6.1-40.9,29.5
			c0,11,9.4,14.6,34,22.9c23.2,7.7,45.8,21.5,45.8,48.9c-0.3,38.9-29.8,63.2-79,63.2c-25.7,0-53.3-11-53.3-32.6
			c0-2.2,0.3-4.7,0.8-7.2l2.8-12.7h1.4c9.7,13.3,32,21.5,53.3,21.5c33.7,0,37.8-17.9,37.8-29.8c0-13.8-11.9-18.8-35.3-26.5
			c-20.4-6.6-44.7-17.9-44.7-45c0.3-32.6,29-63,79.5-63c27.3,0,51.6,11.3,51.6,31.2C317.9,350.5,316.8,354.1,316.3,357.4z"/>
		<path class="st2" d="M459.6,388.3l-2.8,12.1h-1.4c-4.7-9.7-21.3-14.4-32-14.4c-47.5,0-53.8,43.9-53.8,55.8
			c0,30.4,21.3,37.8,34.5,37.8c19.1,0,29.5-5.8,37-10.8h1.7l-3,13c-3.3,14.4-19.1,28.7-47.5,28.7c-9.1,0-59.1-6.6-59.1-66.3
			c0-17.4,14.4-88.9,89.7-88.9c14.4,0,37.3,8.3,37.3,27.1C460.2,384.2,460.2,385.8,459.6,388.3z"/>
		<path class="st2" d="M595.2,421.2l-6.4,30.7c-8.8,42.8-28.7,59.4-71.8,59.4c-13.5,0-51.4-5.8-51.4-42c0-29.5,22.9-52.7,83.9-52.7
			h13l1.4-6.1c0.6-2.5,0.8-5,0.8-8c0-14.6-12.7-18.5-28.4-18.5c-21.8,0-37,6.6-49.4,18.2h-1.7l2.5-13.5
			c3.3-18.2,26.8-33.4,56.3-33.4c27.9,0,52.7,14.4,53.3,45C597.4,406.5,596.8,413.2,595.2,421.2z M540,441.1
			c-16.6,0-39.5,3.6-39.5,25.7c0,11.9,10.5,16.8,22.6,16.8c17.9,0,27.3-8,30.9-25.1l3.6-17.4H540z"/>
	</g>
	<g>
		<path class="st2" d="M740.2,489.7c-2.8,14.9-14.6,19.6-29.8,19.6c-20.4,0-36.5-11.3-36.5-34.2c0-6.1,0.3-10.5,1.4-15.2l32.3-152.7
			H719c12.2,0,19.3,5.2,19.3,17.4c0,2.8-0.3,5.8-1.1,9.1L711,456.8c-0.6,2.5-0.8,5-0.8,7.2c0,13.5,10.8,15.5,23.2,15.5h8.8
			L740.2,489.7z"/>
		<path class="st2" d="M890.2,421.2l-6.4,30.7c-8.8,42.8-28.7,59.4-71.8,59.4c-13.5,0-51.4-5.8-51.4-42c0-29.5,22.9-52.7,83.9-52.7
			h13l1.4-6.1c0.6-2.5,0.8-5,0.8-8c0-14.6-12.7-18.5-28.4-18.5c-21.8,0-37,6.6-49.4,18.2h-1.7l2.5-13.5
			c3.3-18.2,26.8-33.4,56.3-33.4c27.9,0,52.7,14.4,53.3,45C892.4,406.5,891.8,413.2,890.2,421.2z M834.9,441.1
			c-16.6,0-39.5,3.6-39.5,25.7c0,11.9,10.5,16.8,22.6,16.8c17.9,0,27.3-8,30.9-25.1l3.6-17.4H834.9z"/>
		<path class="st2" d="M972.7,511.2c-35.6,0-57.4-23.5-57.4-56.6c0-6.6,0.8-12.4,2.2-19.3l27.1-128.1h10.8
			c13.8,0,19.6,4.7,19.6,15.2c0,1.7-0.6,5.5-1.1,8.8l-11,51.6c7.7-14.1,24.3-27.1,45-27.1c20.4,0,53.3,13,53.3,58
			C1061.1,466.5,1025.8,511.2,972.7,511.2z M997.6,385c-37,0-47.5,45.6-47.5,64.9c0,21,10.2,32.3,28.4,32.3
			c31.5,0,46.9-35.6,46.9-63.8C1025.5,391.6,1010.8,385,997.6,385z"/>
		<path class="st2" d="M1135.7,447.1h-18.5v2.8c0,30.1,23.2,32.6,36.7,32.6c19.6,0,33.7-4.1,45.8-12.7h1.1l-1.7,9.7
			c-3.6,20.2-24,31.8-56.9,31.8c-20.7,0-59.6-11.3-59.6-63.5v-1.1c0.3-21.8,17.9-91.4,85.3-91.4c16.3,0,53.3,10.5,53.3,46.4
			C1221.3,433.1,1200.6,447.1,1135.7,447.1z M1163.3,383.3c-26.5,0-38.7,21.5-42,33.7l-1.4,5.2h17.7c12.7,0,23.5-0.8,30.9-1.9
			c12.1-1.9,20.2-7.2,20.2-17.4C1188.7,388,1175.7,383.3,1163.3,383.3z"/>
		<path class="st2" d="M1303,489.7c-2.8,14.9-14.6,19.6-29.8,19.6c-20.4,0-36.5-11.3-36.5-34.2c0-6.1,0.3-10.5,1.4-15.2l32.3-152.7
			h11.3c12.2,0,19.3,5.2,19.3,17.4c0,2.8-0.3,5.8-1.1,9.1l-26.2,123.2c-0.6,2.5-0.8,5-0.8,7.2c0,13.5,10.8,15.5,23.2,15.5h8.8
			L1303,489.7z"/>
	</g>
</g>
</svg>
